# xmcd
#
# Track frame offsets: 
#        150
#        20329
#        45126
#        58652
#        84828
#        108428
#        131741
#        151780
#        175337
#        193684
#        214265
#
# Disc length: 3070 seconds
#
# Revision: 0
# Processed by: cddbd v1.5.2PL0 Copyright (c) Steve Scherf et al.
# Submitted via: ExactAudioCopy v0.99pb5
#
DISCID=870bfc0b
DTITLE=Theodis Ealey - It's A Real Good Thang
DYEAR=2002
DGENRE=Blues
TTITLE0=All My Baby Left Me Was a Note, My Guitar and a Cookie Jar 200
TTITLE0=2
TTITLE1=Reconsider Baby
TTITLE2=Baby (You've Got What It Takes)
TTITLE3=You've Got to Hurt Before You Heal
TTITLE4=It's a Real Good Thang
TTITLE5=If You Leave Me, I'm Going Wit'cha 2002
TTITLE6=I Want You
TTITLE7=Ain't No Sunshine
TTITLE8=You and I Together
TTITLE9=Theo's Groove
TTITLE10=All My Baby Left Me Was a Note, My Guitar and a Cookie Jar 20
TTITLE10=02 [Radio Edit]
EXTD=
EXTT0=
EXTT1=
EXTT2=
EXTT3=
EXTT4=
EXTT5=
EXTT6=
EXTT7=
EXTT8=
EXTT9=
EXTT10=
PLAYORDER=
